<?xml version="1.0" encoding="UTF-8" standalone="no"?>
<!DOCTYPE svg PUBLIC "-//W3C//DTD SVG 1.1//EN" "http://www.w3.org/Graphics/SVG/1.1/DTD/svg11.dtd">
<svg width="100%" height="100%" viewBox="0 0 2550 3300" version="1.1" xmlns="http://www.w3.org/2000/svg" xmlns:xlink="http://www.w3.org/1999/xlink" xml:space="preserve" xmlns:serif="http://www.serif.com/" style="fill-rule:evenodd;clip-rule:evenodd;stroke-linejoin:round;stroke-miterlimit:2;">
    <g id="Layer-1" serif:id="Layer 1" transform="matrix(4.16667,0,0,4.16667,0,0)">
        <g transform="matrix(1,0,0,1,256.75,449.393)">
            <path d="M0,-302.309C0,-231.815 -68.309,-175.863 -46.508,-116.272C-46.508,-178.042 36.33,-239.086 36.33,-312.479C36.33,-319.748 34.875,-335.735 31.973,-345.908L34.875,-344.455C58.131,-305.938 73.394,-257.978 73.394,-210.742C73.394,-114.094 22.526,-84.299 22.526,-1.456C22.526,18.889 29.063,35.608 31.973,43.599L29.063,43.599C-39.24,2.905 -101.016,-46.512 -101.016,-115.546C-101.016,-188.942 -31.251,-231.09 0,-302.309M80.656,-297.948C123.536,-244.172 165.686,-159.875 163.505,-95.927C161.324,-26.892 96.649,18.164 37.06,43.599L35.604,43.599C33.424,38.517 31.973,19.619 31.973,10.175C31.973,-61.046 97.37,-111.915 97.37,-204.931C98.825,-239.811 91.563,-270.331 77.029,-297.948L80.656,-297.948Z" style="fill:rgb(255,108,12);fill-rule:nonzero;"/>
        </g>
        <g transform="matrix(1,0,0,1,285.813,103.485)">
            <path d="M0,389.507L2.91,389.507C0,381.516 -6.538,364.797 -6.538,344.451C-6.538,261.609 44.33,231.814 44.33,135.166C44.33,87.929 29.067,39.969 5.812,1.453L2.91,0C5.812,10.173 7.267,26.159 7.267,33.428C7.267,106.821 -75.572,167.866 -75.572,229.636C-97.372,170.045 -29.063,114.092 -29.063,43.599C-60.315,114.818 -130.079,156.966 -130.079,230.361C-130.079,299.396 -68.303,348.813 0,389.507" style="fill:rgb(255,108,12);fill-rule:nonzero;"/>
        </g>
        <g transform="matrix(1,0,0,1,354.12,399.974)">
            <path d="M0,-155.512C0,-62.496 -65.397,-11.627 -65.397,59.594C-65.397,69.037 -63.946,87.936 -61.766,93.018L-60.311,93.018C-0.721,67.582 63.954,22.527 66.135,-46.508C68.315,-110.456 26.166,-194.754 -16.714,-248.53L-20.341,-248.53C-5.808,-220.913 1.455,-190.393 0,-155.512" style="fill:rgb(255,108,12);fill-rule:nonzero;"/>
        </g>
        <g transform="matrix(1,0,0,1,323.606,510.106)">
            <path d="M0,138.332C0,138.332 -2.901,78.852 -2.91,76.625C22.526,72.269 40.687,67.182 82.111,49.738C112.638,38.11 143.155,19.221 162.775,4.686C170.038,-0.399 170.038,-2.576 168.591,-5.486L-235.45,-5.486C-238.359,-2.576 -236.905,-0.399 -229.638,4.686C-209.29,19.221 -178.041,37.39 -146.795,49.738C-112.64,62.825 -87.206,72.269 -63.95,76.625L-66.856,138.332C-31.373,143.818 0,138.332 0,138.332" style="fill:rgb(255,108,12);fill-rule:nonzero;"/>
        </g>
    </g>
</svg>
